<svg width="47" height="30" viewBox="0 0 47 30" fill="none" xmlns="http://www.w3.org/2000/svg">
<rect width="47" height="30" rx="2" fill="white"/>
<path fill-rule="evenodd" clip-rule="evenodd" d="M10.2817 10.6377H7.57192C7.38649 10.6377 7.22879 10.7712 7.19987 10.9525L6.10392 17.8363C6.08213 17.9721 6.18832 18.0946 6.3274 18.0946H7.62105C7.80648 18.0946 7.96418 17.9611 7.9931 17.7794L8.28869 15.9228C8.3172 15.7409 8.4753 15.6076 8.66034 15.6076H9.51815C11.3031 15.6076 12.3333 14.7519 12.6024 13.0562C12.7236 12.3143 12.6076 11.7314 12.2568 11.3231C11.8717 10.8749 11.1885 10.6377 10.2817 10.6377ZM10.5943 13.1519C10.4461 14.1152 9.70319 14.1152 8.98485 14.1152H8.57594L8.86281 12.3161C8.87984 12.2075 8.97493 12.1274 9.08588 12.1274H9.27329C9.76262 12.1274 10.2243 12.1274 10.4628 12.4037C10.6049 12.5686 10.6486 12.8135 10.5943 13.1519ZM18.3817 13.121H17.0841C16.9735 13.121 16.878 13.2011 16.8609 13.3099L16.8035 13.6694L16.7128 13.5392C16.4319 13.1352 15.8055 13.0002 15.1803 13.0002C13.7462 13.0002 12.5216 14.0761 12.283 15.5855C12.1591 16.3382 12.3353 17.0581 12.7663 17.5602C13.1619 18.0217 13.7277 18.2141 14.4008 18.2141C15.5562 18.2141 16.197 17.478 16.197 17.478L16.1391 17.8354C16.1172 17.972 16.2234 18.0944 16.3616 18.0944H17.5306C17.7165 18.0944 17.8733 17.9609 17.9026 17.7792L18.6039 13.3793C18.6261 13.244 18.5203 13.121 18.3817 13.121ZM16.5729 15.623C16.4476 16.3575 15.8592 16.8505 15.1089 16.8505C14.7321 16.8505 14.4309 16.7307 14.2376 16.5039C14.0458 16.2786 13.9728 15.9578 14.0339 15.6007C14.1509 14.8725 14.7492 14.3635 15.4881 14.3635C15.8565 14.3635 16.1561 14.4847 16.3534 14.7135C16.5511 14.9448 16.6295 15.2674 16.5729 15.623ZM23.9886 13.1208H25.2927C25.4753 13.1208 25.5818 13.3237 25.4781 13.4721L21.1411 19.674C21.0709 19.7745 20.9552 19.8342 20.8316 19.8342H19.5292C19.3458 19.8342 19.2387 19.6297 19.3449 19.4809L20.6953 17.5925L19.2591 13.4167C19.2094 13.2716 19.3176 13.1208 19.4734 13.1208H20.7547C20.9212 13.1208 21.0681 13.2291 21.1161 13.387L21.8784 15.909L23.6769 13.2845C23.7473 13.1821 23.8643 13.1208 23.9886 13.1208Z" fill="#253B80"/>
<path fill-rule="evenodd" clip-rule="evenodd" d="M38.1272 17.8356L39.2393 10.826C39.2564 10.7172 39.3515 10.6371 39.4621 10.6367H40.7141C40.8523 10.6367 40.9585 10.7595 40.9367 10.8954L39.84 17.7788C39.8114 17.9604 39.6537 18.094 39.4679 18.094H38.3498C38.2116 18.094 38.1054 17.9715 38.1272 17.8356ZM29.6104 10.6371H26.9002C26.7152 10.6371 26.5575 10.7706 26.5285 10.9519L25.4326 17.8356C25.4107 17.9715 25.5169 18.094 25.6554 18.094H27.0459C27.1752 18.094 27.2858 18.0006 27.3059 17.8734L27.6169 15.9222C27.6455 15.7403 27.8036 15.607 27.9886 15.607H28.846C30.6313 15.607 31.6613 14.7512 31.9306 13.0556C32.0522 12.3137 31.9354 11.7308 31.5848 11.3224C31.1999 10.8743 30.5173 10.6371 29.6104 10.6371ZM29.923 13.1513C29.7752 14.1146 29.0323 14.1146 28.3135 14.1146H27.905L28.1923 12.3155C28.2094 12.2069 28.3036 12.1268 28.4149 12.1268H28.6023C29.0913 12.1268 29.5534 12.1268 29.7917 12.4031C29.934 12.568 29.9773 12.8129 29.923 13.1513ZM37.7097 13.1204H36.413C36.3015 13.1204 36.2069 13.2005 36.1902 13.3093L36.1328 13.6688L36.0417 13.5386C35.7608 13.1346 35.1348 12.9996 34.5096 12.9996C33.0755 12.9996 31.8512 14.0755 31.6127 15.5848C31.4891 16.3376 31.6646 17.0575 32.0956 17.5595C32.4919 18.0211 33.057 18.2135 33.7301 18.2135C34.8854 18.2135 35.5261 17.4774 35.5261 17.4774L35.4683 17.8347C35.4465 17.9713 35.5527 18.0938 35.6919 18.0938H36.8602C37.0452 18.0938 37.2029 17.9603 37.2319 17.7786L37.9336 13.3787C37.9551 13.2434 37.8489 13.1204 37.7097 13.1204ZM35.9011 15.6224C35.7766 16.3568 35.1874 16.8498 34.437 16.8498C34.0609 16.8498 33.7591 16.7301 33.5656 16.5033C33.3738 16.278 33.3018 15.9572 33.3621 15.6001C33.4796 14.8719 34.0772 14.3629 34.8161 14.3629C35.1847 14.3629 35.4841 14.484 35.6816 14.7129C35.88 14.9442 35.9585 15.2668 35.9011 15.6224Z" fill="#179BD7"/>
</svg>
