<svg width="24" height="24" viewBox="0 0 24 24" fill="none" xmlns="http://www.w3.org/2000/svg">
<g clip-path="url(#clip0_10254_29630)">
<path d="M2 2.625C2 2.45924 2.06585 2.30027 2.18306 2.18306C2.30027 2.06585 2.45924 2 2.625 2H6.375C6.54076 2 6.69973 2.06585 6.81694 2.18306C6.93415 2.30027 7 2.45924 7 2.625C7 2.79076 6.93415 2.94973 6.81694 3.06694C6.69973 3.18415 6.54076 3.25 6.375 3.25H3.25V6.375C3.25 6.54076 3.18415 6.69973 3.06694 6.81694C2.94973 6.93415 2.79076 7 2.625 7C2.45924 7 2.30027 6.93415 2.18306 6.81694C2.06585 6.69973 2 6.54076 2 6.375V2.625ZM17 2.625C17 2.45924 17.0658 2.30027 17.1831 2.18306C17.3003 2.06585 17.4592 2 17.625 2H21.375C21.5408 2 21.6997 2.06585 21.8169 2.18306C21.9342 2.30027 22 2.45924 22 2.625V6.375C22 6.54076 21.9342 6.69973 21.8169 6.81694C21.6997 6.93415 21.5408 7 21.375 7C21.2092 7 21.0503 6.93415 20.9331 6.81694C20.8158 6.69973 20.75 6.54076 20.75 6.375V3.25H17.625C17.4592 3.25 17.3003 3.18415 17.1831 3.06694C17.0658 2.94973 17 2.79076 17 2.625ZM2.625 17C2.79076 17 2.94973 17.0658 3.06694 17.1831C3.18415 17.3003 3.25 17.4592 3.25 17.625V20.75H6.375C6.54076 20.75 6.69973 20.8158 6.81694 20.9331C6.93415 21.0503 7 21.2092 7 21.375C7 21.5408 6.93415 21.6997 6.81694 21.8169C6.69973 21.9342 6.54076 22 6.375 22H2.625C2.45924 22 2.30027 21.9342 2.18306 21.8169C2.06585 21.6997 2 21.5408 2 21.375V17.625C2 17.4592 2.06585 17.3003 2.18306 17.1831C2.30027 17.0658 2.45924 17 2.625 17ZM21.375 17C21.5408 17 21.6997 17.0658 21.8169 17.1831C21.9342 17.3003 22 17.4592 22 17.625V21.375C22 21.5408 21.9342 21.6997 21.8169 21.8169C21.6997 21.9342 21.5408 22 21.375 22H17.625C17.4592 22 17.3003 21.9342 17.1831 21.8169C17.0658 21.6997 17 21.5408 17 21.375C17 21.2092 17.0658 21.0503 17.1831 20.9331C17.3003 20.8158 17.4592 20.75 17.625 20.75H20.75V17.625C20.75 17.4592 20.8158 17.3003 20.9331 17.1831C21.0503 17.0658 21.2092 17 21.375 17ZM7 7H8.25V8.25H7V7Z" fill="#001133"/>
<path d="M10.75 4.5H4.5V10.75H10.75V4.5ZM5.75 5.75H9.5V9.5H5.75V5.75ZM8.25 15.75H7V17H8.25V15.75Z" fill="#001133"/>
<path d="M10.75 13.25H4.5V19.5H10.75V13.25ZM5.75 14.5H9.5V18.25H5.75V14.5ZM15.75 7H17V8.25H15.75V7Z" fill="#001133"/>
<path d="M13.25 4.5H19.5V10.75H13.25V4.5ZM14.5 5.75V9.5H18.25V5.75H14.5ZM12 12V14.5H13.25V15.75H12V17H14.5V14.5H15.75V17H17V15.75H19.5V14.5H15.75V12H12ZM14.5 14.5H13.25V13.25H14.5V14.5ZM19.5 17H18.25V18.25H15.75V19.5H19.5V17ZM14.5 19.5V18.25H12V19.5H14.5Z" fill="#001133"/>
<path d="M17 13.25H19.5V12H17V13.25Z" fill="#001133"/>
</g>
<defs>
<clipPath id="clip0_10254_29630">
<rect width="20" height="20" fill="white" transform="translate(2 2)"/>
</clipPath>
</defs>
</svg>
