<svg width="32" height="32" viewBox="0 0 32 32" fill="none" xmlns="http://www.w3.org/2000/svg">
<path d="M14 20V12H17C17.5304 12 18.0391 12.2107 18.4142 12.5858C18.7893 12.9609 19 13.4696 19 14C19 14.5304 18.7893 15.0391 18.4142 15.4142C18.0391 15.7893 17.5304 16 17 16C17.5304 16 18.0391 16.2107 18.4142 16.5858C18.7893 16.9609 19 17.4696 19 18C19 18.5304 18.7893 19.0391 18.4142 19.4142C18.0391 19.7893 17.5304 20 17 20H14Z" stroke="url(#paint0_linear_9346_135290)" stroke-width="1.5" stroke-linecap="round" stroke-linejoin="round"/>
<path d="M14 16H17" stroke="url(#paint1_linear_9346_135290)" stroke-width="1.5" stroke-linecap="round" stroke-linejoin="round"/>
<path d="M16 12V10" stroke="url(#paint2_linear_9346_135290)" stroke-width="1.5" stroke-linecap="round" stroke-linejoin="round"/>
<path d="M16 20V22" stroke="url(#paint3_linear_9346_135290)" stroke-width="1.5" stroke-linecap="round" stroke-linejoin="round"/>
<path d="M10 6V2" stroke="url(#paint4_linear_9346_135290)" stroke-width="1.5" stroke-linecap="round" stroke-linejoin="round"/>
<path d="M16 6V2" stroke="url(#paint5_linear_9346_135290)" stroke-width="1.5" stroke-linecap="round" stroke-linejoin="round"/>
<path d="M22 6V2" stroke="url(#paint6_linear_9346_135290)" stroke-width="1.5" stroke-linecap="round" stroke-linejoin="round"/>
<path d="M10 30V26" stroke="url(#paint7_linear_9346_135290)" stroke-width="1.5" stroke-linecap="round" stroke-linejoin="round"/>
<path d="M16 30V26" stroke="url(#paint8_linear_9346_135290)" stroke-width="1.5" stroke-linecap="round" stroke-linejoin="round"/>
<path d="M22 30V26" stroke="url(#paint9_linear_9346_135290)" stroke-width="1.5" stroke-linecap="round" stroke-linejoin="round"/>
<path d="M26 10H30" stroke="url(#paint10_linear_9346_135290)" stroke-width="1.5" stroke-linecap="round" stroke-linejoin="round"/>
<path d="M26 16H30" stroke="url(#paint11_linear_9346_135290)" stroke-width="1.5" stroke-linecap="round" stroke-linejoin="round"/>
<path d="M26 22H30" stroke="url(#paint12_linear_9346_135290)" stroke-width="1.5" stroke-linecap="round" stroke-linejoin="round"/>
<path d="M2 10H6" stroke="url(#paint13_linear_9346_135290)" stroke-width="1.5" stroke-linecap="round" stroke-linejoin="round"/>
<path d="M2 16H6" stroke="url(#paint14_linear_9346_135290)" stroke-width="1.5" stroke-linecap="round" stroke-linejoin="round"/>
<path d="M2 22H6" stroke="url(#paint15_linear_9346_135290)" stroke-width="1.5" stroke-linecap="round" stroke-linejoin="round"/>
<path d="M22 6H10C7.79086 6 6 7.79086 6 10V22C6 24.2091 7.79086 26 10 26H22C24.2091 26 26 24.2091 26 22V10C26 7.79086 24.2091 6 22 6Z" stroke="url(#paint16_linear_9346_135290)" stroke-width="1.5" stroke-linecap="round" stroke-linejoin="round"/>
<defs>
<linearGradient id="paint0_linear_9346_135290" x1="16.5" y1="12" x2="16.5" y2="20" gradientUnits="userSpaceOnUse">
<stop stop-color="#6CFF68"/>
<stop offset="1" stop-color="#C0FF3A"/>
</linearGradient>
<linearGradient id="paint1_linear_9346_135290" x1="15.5" y1="16" x2="15.5" y2="17" gradientUnits="userSpaceOnUse">
<stop stop-color="#6CFF68"/>
<stop offset="1" stop-color="#C0FF3A"/>
</linearGradient>
<linearGradient id="paint2_linear_9346_135290" x1="16.5" y1="10" x2="16.5" y2="12" gradientUnits="userSpaceOnUse">
<stop stop-color="#6CFF68"/>
<stop offset="1" stop-color="#C0FF3A"/>
</linearGradient>
<linearGradient id="paint3_linear_9346_135290" x1="16.5" y1="20" x2="16.5" y2="22" gradientUnits="userSpaceOnUse">
<stop stop-color="#6CFF68"/>
<stop offset="1" stop-color="#C0FF3A"/>
</linearGradient>
<linearGradient id="paint4_linear_9346_135290" x1="10.5" y1="2" x2="10.5" y2="6" gradientUnits="userSpaceOnUse">
<stop stop-color="#6CFF68"/>
<stop offset="1" stop-color="#C0FF3A"/>
</linearGradient>
<linearGradient id="paint5_linear_9346_135290" x1="16.5" y1="2" x2="16.5" y2="6" gradientUnits="userSpaceOnUse">
<stop stop-color="#6CFF68"/>
<stop offset="1" stop-color="#C0FF3A"/>
</linearGradient>
<linearGradient id="paint6_linear_9346_135290" x1="22.5" y1="2" x2="22.5" y2="6" gradientUnits="userSpaceOnUse">
<stop stop-color="#6CFF68"/>
<stop offset="1" stop-color="#C0FF3A"/>
</linearGradient>
<linearGradient id="paint7_linear_9346_135290" x1="10.5" y1="26" x2="10.5" y2="30" gradientUnits="userSpaceOnUse">
<stop stop-color="#6CFF68"/>
<stop offset="1" stop-color="#C0FF3A"/>
</linearGradient>
<linearGradient id="paint8_linear_9346_135290" x1="16.5" y1="26" x2="16.5" y2="30" gradientUnits="userSpaceOnUse">
<stop stop-color="#6CFF68"/>
<stop offset="1" stop-color="#C0FF3A"/>
</linearGradient>
<linearGradient id="paint9_linear_9346_135290" x1="22.5" y1="26" x2="22.5" y2="30" gradientUnits="userSpaceOnUse">
<stop stop-color="#6CFF68"/>
<stop offset="1" stop-color="#C0FF3A"/>
</linearGradient>
<linearGradient id="paint10_linear_9346_135290" x1="28" y1="10" x2="28" y2="11" gradientUnits="userSpaceOnUse">
<stop stop-color="#6CFF68"/>
<stop offset="1" stop-color="#C0FF3A"/>
</linearGradient>
<linearGradient id="paint11_linear_9346_135290" x1="28" y1="16" x2="28" y2="17" gradientUnits="userSpaceOnUse">
<stop stop-color="#6CFF68"/>
<stop offset="1" stop-color="#C0FF3A"/>
</linearGradient>
<linearGradient id="paint12_linear_9346_135290" x1="28" y1="22" x2="28" y2="23" gradientUnits="userSpaceOnUse">
<stop stop-color="#6CFF68"/>
<stop offset="1" stop-color="#C0FF3A"/>
</linearGradient>
<linearGradient id="paint13_linear_9346_135290" x1="4" y1="10" x2="4" y2="11" gradientUnits="userSpaceOnUse">
<stop stop-color="#6CFF68"/>
<stop offset="1" stop-color="#C0FF3A"/>
</linearGradient>
<linearGradient id="paint14_linear_9346_135290" x1="4" y1="16" x2="4" y2="17" gradientUnits="userSpaceOnUse">
<stop stop-color="#6CFF68"/>
<stop offset="1" stop-color="#C0FF3A"/>
</linearGradient>
<linearGradient id="paint15_linear_9346_135290" x1="4" y1="22" x2="4" y2="23" gradientUnits="userSpaceOnUse">
<stop stop-color="#6CFF68"/>
<stop offset="1" stop-color="#C0FF3A"/>
</linearGradient>
<linearGradient id="paint16_linear_9346_135290" x1="16" y1="6" x2="16" y2="26" gradientUnits="userSpaceOnUse">
<stop stop-color="#6CFF68"/>
<stop offset="1" stop-color="#C0FF3A"/>
</linearGradient>
</defs>
</svg>
